<svg xmlns="http://www.w3.org/2000/svg" viewBox="0 0 130 35">
  <path d="M37.7 16.1c0 1 .1 2 .3 2.8.2.9.5 1.6 1 2.3.5.6 1 1.2 1.8 1.5s1.6.6 2.6.6 1.8-.2 2.7-.5c.8-.3 1.4-.7 1.9-1V9.3c-.5-.2-1-.2-1.6-.3-.6-.1-1.4-.1-2.4-.1-1.9 0-3.4.6-4.6 1.9-1.1 1.2-1.7 3-1.7 5.3zm-3-4.4c.5-1.3 1.1-2.4 2-3.3.9-.9 1.9-1.6 3.1-2.1 1.2-.3 2.6-.6 4.1-.6 1.6 0 3.1.1 4.4.4s2.3.5 3.1.7v27.6l-3.5.6V25c-.4.3-1.1.6-2 .9-.9.3-1.9.5-3 .5-1.4 0-2.7-.3-3.8-.8-1.1-.5-2-1.2-2.8-2.1s-1.3-2-1.7-3.3-.6-2.6-.6-4.1c0-1.6.2-3.1.7-4.4zM73.8 16c0 1.6-.2 3-.7 4.3-.5 1.3-1.1 2.4-1.9 3.3s-1.8 1.6-2.9 2.1c-1.1.5-2.4.7-3.7.7-1.3 0-2.6-.2-3.7-.7-1.1-.5-2.1-1.2-2.9-2.1-.8-.9-1.5-2-1.9-3.3-.5-1.3-.7-2.7-.7-4.3 0-1.5.2-3 .7-4.2.5-1.3 1.1-2.4 1.9-3.3.8-.9 1.8-1.6 2.9-2.1 1.1-.5 2.4-.7 3.7-.7 1.3 0 2.6.2 3.7.7 1.1.5 2.1 1.2 2.9 2.1.8.9 1.5 2 1.9 3.3.5 1.3.7 2.7.7 4.2zm-3.7 0c0-2.2-.5-4-1.5-5.3s-2.4-2-4.1-2-3.1.7-4.1 2S59 13.8 59 16s.5 4 1.5 5.3c1 1.3 2.4 2 4.1 2s3.1-.7 4.1-2c.9-1.3 1.4-3 1.4-5.3zm7.6-9.3c.8-.2 1.9-.4 3.2-.6s2.9-.3 4.6-.3c1.6 0 2.9.2 3.9.7 1 .4 1.9 1.1 2.5 1.9.7.6 1.1 1.6 1.4 2.7s.4 2.3.4 3.7v11.1h-3.5V15.6c0-1.2-.1-2.3-.2-3.1s-.4-1.6-.8-2.1-.9-.9-1.5-1.2-1.4-.4-2.4-.4h-1.2s-.9.1-1.3.2-.7.1-1 .1c-.3.1-.5.1-.6.1v16.7h-3.5V6.7zm24-.6h7.5v3h-7.5v9.1c0 1 .1 1.8.2 2.5.2.6.4 1.2.7 1.5.3.4.7.6 1.1.8.5.2 1 .2 1.6.2 1.1 0 1.9-.1 2.6-.4.6-.2 1.1-.4 1.3-.5l.7 2.9c-.4.2-1 .4-1.9.7-.9.3-1.9.4-3 .4-1.3 0-2.5-.2-3.3-.5-.9-.3-1.6-.9-2.1-1.5-.5-.7-.9-1.5-1.1-2.5-.2-1-.3-2.2-.3-3.5V.6l3.5-.6v6.1zM130 16c0 1.6-.2 3-.7 4.3-.5 1.3-1.1 2.4-1.9 3.3s-1.8 1.6-2.9 2.1c-1.1.5-2.4.7-3.7.7-1.3 0-2.6-.2-3.7-.7-1.1-.5-2.1-1.2-2.9-2.1-.8-.9-1.5-2-1.9-3.3-.5-1.3-.7-2.7-.7-4.3 0-1.5.2-3 .7-4.2.5-1.3 1.1-2.4 1.9-3.3.8-.9 1.8-1.6 2.9-2.1s2.4-.7 3.7-.7c1.3 0 2.6.2 3.7.7 1.1.5 2.1 1.2 2.9 2.1.8.9 1.5 2 1.9 3.3.5 1.3.7 2.7.7 4.2zm-3.7 0c0-2.2-.5-4-1.5-5.3s-2.4-2-4.1-2-3.1.7-4.1 2c-1 1.3-1.5 3.1-1.5 5.3s.5 4 1.5 5.3c1 1.3 2.4 2 4.1 2s3.1-.7 4.1-2c1-1.3 1.5-3 1.5-5.3z" class="fill-logo-1"></path>
  <g>
    <path d="M3.5 11.8c2.1 2.1 4.9 3.3 7.8 3.5-.2-2.9-1.4-5.7-3.5-7.8C5.7 5.4 3 4.2 0 4c.2 2.9 1.4 5.7 3.5 7.8z" class="fill-logo-2"></path>
    <path d="M20.5 11.8c-2.1 2.1-4.9 3.3-7.8 3.5.2-2.9 1.4-5.7 3.5-7.8C18.2 5.4 21 4.2 24 4c-.2 2.9-1.4 5.7-3.5 7.8z" class="fill-logo-2"></path>
    <path d="M20.5 20.1c-2.1-2.1-4.9-3.3-7.8-3.5.2 2.9 1.4 5.7 3.5 7.8 2.1 2.1 4.9 3.3 7.8 3.5-.2-3-1.4-5.8-3.5-7.8z" class="fill-logo-2"></path>
    <path d="M3.5 20.1c2.1-2.1 4.9-3.3 7.9-3.5-.2 2.9-1.4 5.7-3.5 7.8C5.7 26.5 3 27.7 0 27.9c.2-3 1.4-5.8 3.5-7.8z" class="fill-logo-2"></path>
  </g>
</svg>